<?xml version="1.0" encoding="utf-8"?>
<!-- Generator: Adobe Illustrator 28.0.0, SVG Export Plug-In . SVG Version: 6.00 Build 0)  -->
<svg version="1.1" id="Layer_1" xmlns="http://www.w3.org/2000/svg" xmlns:xlink="http://www.w3.org/1999/xlink" x="0px" y="0px"
	 viewBox="0 0 180.4 12.9" style="enable-background:new 0 0 180.4 12.9;" xml:space="preserve">
<style type="text/css">
	.st0{fill:#797979;}
</style>
<g>
	<g>
		<g>
			<path class="st0" d="M0,10.1V3.4h0.9v1.3L0.8,4.5C1,4.1,1.3,3.8,1.6,3.6C2,3.3,2.4,3.2,2.8,3.2c0.5,0,1,0.1,1.4,0.4
				S5,4.3,5.1,4.8l-0.3,0C5,4.3,5.3,3.9,5.7,3.6c0.4-0.3,0.9-0.4,1.4-0.4c0.5,0,0.9,0.1,1.3,0.3c0.4,0.2,0.7,0.5,0.9,0.9
				c0.2,0.4,0.3,0.8,0.3,1.3v4.4H8.7v-4c0-0.4-0.1-0.8-0.2-1C8.3,4.8,8.1,4.6,7.9,4.4C7.6,4.2,7.3,4.2,7,4.2c-0.3,0-0.6,0.1-0.9,0.2
				C5.9,4.6,5.7,4.8,5.5,5.1s-0.2,0.6-0.2,1v4H4.3v-4c0-0.4-0.1-0.8-0.2-1C4,4.8,3.8,4.6,3.5,4.4C3.3,4.2,3,4.2,2.7,4.2
				C2.3,4.2,2,4.2,1.8,4.4C1.5,4.6,1.3,4.8,1.2,5.1C1,5.4,0.9,5.7,0.9,6.1v4H0z"/>
			<path class="st0" d="M13.4,10.3c-0.4,0-0.8-0.1-1.1-0.2c-0.3-0.2-0.6-0.4-0.8-0.7s-0.3-0.6-0.3-1c0-0.4,0.1-0.7,0.2-1
				c0.2-0.3,0.4-0.5,0.7-0.7c0.3-0.2,0.7-0.3,1.2-0.4L16,5.8v0.9l-2.4,0.4c-0.5,0.1-0.8,0.2-1.1,0.5S12.2,8,12.2,8.3
				c0,0.3,0.1,0.6,0.4,0.8c0.2,0.2,0.5,0.3,0.9,0.3c0.5,0,0.9-0.1,1.2-0.3c0.3-0.2,0.6-0.5,0.8-0.8c0.2-0.3,0.3-0.7,0.3-1.1V5.5
				c0-0.4-0.1-0.7-0.4-1c-0.3-0.2-0.7-0.4-1.1-0.4c-0.4,0-0.8,0.1-1.1,0.3c-0.3,0.2-0.5,0.5-0.7,0.8l-0.9-0.5
				c0.1-0.3,0.3-0.5,0.6-0.8c0.3-0.2,0.6-0.4,0.9-0.6s0.7-0.2,1.1-0.2c0.5,0,0.9,0.1,1.3,0.3c0.4,0.2,0.7,0.5,0.9,0.8
				c0.2,0.3,0.3,0.7,0.3,1.2v4.6h-0.9V8.8l0.1,0.1c-0.1,0.3-0.3,0.5-0.5,0.7c-0.2,0.2-0.5,0.4-0.9,0.5
				C14.1,10.2,13.8,10.3,13.4,10.3z"/>
			<path class="st0" d="M21.7,10.3c-0.6,0-1.2-0.2-1.7-0.5c-0.5-0.3-0.9-0.7-1.2-1.3c-0.3-0.5-0.4-1.1-0.4-1.8
				c0-0.7,0.1-1.3,0.4-1.8C19.1,4.4,19.5,4,20,3.7c0.5-0.3,1.1-0.5,1.7-0.5c0.6,0,1.1,0.1,1.5,0.4c0.5,0.3,0.8,0.6,1.1,1l-0.2,0.3
				V0.6h0.9v9.5h-0.9V8.6l0.2,0.1c-0.2,0.5-0.6,0.9-1.1,1.1S22.3,10.3,21.7,10.3z M21.7,9.3c0.5,0,0.9-0.1,1.2-0.3
				c0.4-0.2,0.7-0.5,0.9-0.9c0.2-0.4,0.3-0.8,0.3-1.3S24,5.8,23.8,5.4C23.6,5,23.3,4.7,23,4.5c-0.4-0.2-0.8-0.3-1.2-0.3
				c-0.4,0-0.8,0.1-1.2,0.3c-0.4,0.2-0.6,0.5-0.9,0.9c-0.2,0.4-0.3,0.8-0.3,1.3c0,0.5,0.1,0.9,0.3,1.3c0.2,0.4,0.5,0.7,0.8,0.9
				C20.9,9.2,21.3,9.3,21.7,9.3z"/>
			<path class="st0" d="M30.1,10.3c-0.6,0-1.2-0.2-1.7-0.5c-0.5-0.3-0.9-0.7-1.2-1.3c-0.3-0.5-0.4-1.1-0.4-1.8
				c0-0.7,0.1-1.3,0.4-1.8c0.3-0.5,0.7-0.9,1.2-1.2c0.5-0.3,1-0.5,1.7-0.5c0.5,0,0.9,0.1,1.3,0.3c0.4,0.2,0.7,0.4,1,0.7
				c0.3,0.3,0.5,0.6,0.6,1c0.1,0.4,0.2,0.8,0.2,1.2c0,0.1,0,0.2,0,0.3c0,0.1,0,0.2,0,0.3h-5.7V6.2h5.2l-0.5,0.4
				c0.1-0.5,0-0.9-0.2-1.2c-0.2-0.4-0.4-0.7-0.8-0.9c-0.3-0.2-0.7-0.3-1.1-0.3s-0.8,0.1-1.2,0.3C28.5,4.6,28.2,5,28,5.3
				c-0.2,0.4-0.3,0.9-0.2,1.4c0,0.5,0,1,0.3,1.4c0.2,0.4,0.5,0.7,0.9,0.9c0.4,0.2,0.8,0.3,1.2,0.3c0.5,0,0.9-0.1,1.2-0.4
				s0.6-0.5,0.8-0.9L33,8.6c-0.1,0.3-0.3,0.6-0.6,0.8c-0.3,0.3-0.6,0.5-1,0.6S30.6,10.3,30.1,10.3z"/>
			<path class="st0" d="M38.4,10.1l-2.3-6.7h1.1l1.9,5.9h-0.4l1.8-5.9h0.9l1.8,5.9h-0.4l1.9-5.9h1.1l-2.3,6.7h-0.9l-1.8-5.8h0.3
				l-1.8,5.8H38.4z"/>
			<path class="st0" d="M47,2.1V0.7h0.9v1.4H47z M47,10.1V3.4h0.9v6.7H47z"/>
			<path class="st0" d="M52.4,10.2c-0.6,0-1.1-0.2-1.4-0.5c-0.3-0.4-0.5-0.9-0.5-1.5V4.3h-1.2V3.4h0.3c0.3,0,0.5-0.1,0.7-0.3
				c0.2-0.2,0.3-0.4,0.3-0.7V1.8h0.9v1.6H53v0.9h-1.5v3.8c0,0.2,0,0.4,0.1,0.6c0.1,0.2,0.2,0.3,0.3,0.4c0.2,0.1,0.4,0.2,0.7,0.2
				c0.1,0,0.1,0,0.2,0c0.1,0,0.2,0,0.2,0v0.8c-0.1,0-0.2,0-0.3,0.1C52.6,10.2,52.5,10.2,52.4,10.2z"/>
			<path class="st0" d="M54.7,10.1V0.6h0.9v4.1l-0.2-0.1c0.2-0.4,0.4-0.8,0.8-1s0.8-0.4,1.3-0.4c0.5,0,0.9,0.1,1.3,0.3
				c0.4,0.2,0.7,0.5,0.9,0.9c0.2,0.4,0.3,0.8,0.3,1.3v4.4h-0.9v-4c0-0.4-0.1-0.8-0.2-1c-0.2-0.3-0.4-0.5-0.6-0.7
				c-0.3-0.2-0.6-0.2-0.9-0.2s-0.6,0.1-0.9,0.2c-0.3,0.2-0.5,0.4-0.6,0.7s-0.2,0.6-0.2,1v4H54.7z"/>
		</g>
	</g>
	<g>
		<path class="st0" d="M114.3,3.2c-2,0-3.5,1.5-3.5,3.5c0,2,1.5,3.5,3.5,3.5c2,0,3.5-1.5,3.5-3.5C117.8,4.8,116.2,3.2,114.3,3.2z
			 M114.3,9C113,9,112,8,112,6.8c0-1.3,1-2.3,2.2-2.3c1.3,0,2.3,1,2.3,2.3C116.5,8,115.5,9,114.3,9z"/>
		<polygon class="st0" points="125.8,8.2 124.1,3.4 123,3.4 121.3,8.2 119.7,3.4 118.3,3.4 120.8,10.1 121.8,10.1 123.5,5.3 
			125.3,10.1 126.3,10.1 128.8,3.4 127.4,3.4 		"/>
		<path class="st0" d="M130.9,5.2c0-0.5,0.5-0.9,1.2-0.9c0.6,0,1.5,0.3,2,0.7l0.6-1c-0.6-0.6-1.5-0.9-2.5-0.9
			c-1.5,0-2.6,0.8-2.6,2.1c0,2.5,3.9,1.5,3.9,3c0,0.5-0.5,0.9-1.3,0.9c-0.8,0-1.7-0.3-2.3-0.9l-0.5,1c0.7,0.6,1.8,1,2.8,1
			c1.5,0,2.6-0.9,2.6-2C134.8,5.7,130.9,6.5,130.9,5.2z"/>
		<path class="st0" d="M141.4,4.3c-0.4-0.6-1.3-1.1-2.2-1.1c-1.9,0-3.3,1.5-3.3,3.5s1.4,3.5,3.3,3.5c0.9,0,1.9-0.5,2.2-1.1v3.4h1.3
			V3.4h-1.3V4.3z M141.4,7.9c-0.4,0.6-1.2,1.1-2,1.1c-1.3,0-2.3-1-2.3-2.3c0-1.3,1-2.3,2.3-2.3c0.8,0,1.6,0.5,2,1.1V7.9z"/>
		<path class="st0" d="M149.6,7.9c-0.4,0.7-1.1,1.1-1.9,1.1c-1.1,0-1.8-0.8-1.8-1.9V3.4h-1.3v3.9c0,1.8,1.1,3,2.8,3
			c0.9,0,1.8-0.5,2.2-1.1v1h1.3V3.4h-1.3V7.9z"/>
		<path class="st0" d="M158,4.3c-0.4-0.6-1.3-1.1-2.2-1.1c-1.9,0-3.3,1.5-3.3,3.5s1.4,3.5,3.3,3.5c0.9,0,1.9-0.5,2.2-1.1v1h1.3V3.4
			H158V4.3z M158,8c-0.4,0.6-1.2,1.1-2,1.1c-1.3,0-2.3-1-2.3-2.3c0-1.3,1-2.3,2.3-2.3c0.8,0,1.6,0.5,2,1.1V8z"/>
		<path class="st0" d="M169.1,3.2c-1.9,0-3.4,1.5-3.4,3.5c0,2,1.5,3.5,3.5,3.5c1.4,0,2.5-0.6,3-1.5l-1-0.6c-0.3,0.6-1.1,1-2,1
			c-1.2,0-2.1-0.8-2.3-2.1h5.4c0-0.2,0-0.4,0-0.6C172.4,4.6,171,3.2,169.1,3.2z M167,6c0.2-1,1-1.7,2.1-1.7c1.1,0,1.9,0.7,2,1.7H167
			z"/>
		<path class="st0" d="M179.1,0.4v3.9c-0.4-0.6-1.3-1.1-2.2-1.1c-1.9,0-3.3,1.5-3.3,3.5s1.4,3.5,3.3,3.5c0.9,0,1.9-0.5,2.2-1.1v1
			h1.3V0.4H179.1z M179.1,8c-0.4,0.6-1.2,1.1-2,1.1c-1.3,0-2.3-1-2.3-2.3c0-1.3,1-2.3,2.3-2.3c0.8,0,1.6,0.5,2,1.1V8z"/>
		<polygon class="st0" points="106.2,3.9 106.2,4.6 106.2,10.1 107.5,10.1 107.5,4.6 110.2,4.6 110.2,3.4 106.2,3.4 		"/>
		<polygon class="st0" points="161.2,3.9 161.2,4.6 161.2,10.1 162.5,10.1 162.5,4.6 165.1,4.6 165.1,3.4 161.2,3.4 		"/>
	</g>
	<polygon class="st0" points="69.6,8.6 73.9,12.9 78.2,8.6 82.5,4.3 78.2,0 73.9,4.3 69.6,0 65.3,4.3 	"/>
	<g>
		<path class="st0" d="M91.3,10.3c-0.6,0-1.1-0.1-1.6-0.4c-0.5-0.3-0.8-0.6-1.1-1.1l0.2-0.1v1.5h-0.9V0.6h0.9v4.3l-0.2-0.3
			c0.3-0.4,0.6-0.8,1.1-1s1-0.4,1.5-0.4c0.6,0,1.2,0.2,1.7,0.5s0.9,0.7,1.2,1.2c0.3,0.5,0.4,1.1,0.4,1.8c0,0.7-0.1,1.3-0.4,1.8
			c-0.3,0.5-0.7,1-1.2,1.3C92.5,10.1,91.9,10.3,91.3,10.3z M91.2,9.3c0.5,0,0.9-0.1,1.2-0.3c0.4-0.2,0.6-0.5,0.8-0.9
			c0.2-0.4,0.3-0.8,0.3-1.3c0-0.5-0.1-0.9-0.3-1.3c-0.2-0.4-0.5-0.7-0.8-0.9c-0.4-0.2-0.8-0.3-1.2-0.3c-0.5,0-0.9,0.1-1.2,0.3
			c-0.4,0.2-0.7,0.5-0.9,0.9c-0.2,0.4-0.3,0.8-0.3,1.3s0.1,0.9,0.3,1.3C89.3,8.4,89.6,8.8,90,9C90.3,9.2,90.7,9.3,91.2,9.3z"/>
		<path class="st0" d="M96.3,12.9c-0.1,0-0.3,0-0.4,0c-0.1,0-0.3-0.1-0.4-0.1v-0.9c0.1,0,0.2,0,0.3,0c0.1,0,0.3,0,0.4,0
			c0.4,0,0.7-0.1,0.9-0.3s0.4-0.5,0.6-1l0.4-1l0,0.8l-2.9-7.1h1l2.3,5.9h-0.3l2.3-5.9h1L98.7,11c-0.1,0.3-0.3,0.6-0.5,0.9
			c-0.2,0.3-0.5,0.5-0.8,0.7C97.1,12.8,96.7,12.9,96.3,12.9z"/>
	</g>
</g>
</svg>
